HIERARCHY
ROOT Hips
{
  OFFSET 7.21764 91.785 -47.548
  CHANNELS 6 Xposition Yposition Zposition Zrotation Xrotation Yrotation
  JOINT ToSpine
  {
    OFFSET -2.69724 7.43032 -0.144315
    CHANNELS 3 Zrotation Xrotation Yrotation
    JOINT Spine
    {
      OFFSET -0.0310711 10.7595 1.96963
      CHANNELS 3 Zrotation Xrotation Yrotation
      JOINT Spine1
      {
        OFFSET 13.1342 3.43533 0.764692
        CHANNELS 3 Zrotation Xrotation Yrotation
        JOINT Neck
        {
          OFFSET 29.8703 7.82586 -0.130764
          CHANNELS 3 Zrotation Xrotation Yrotation
          JOINT Head
          {
            OFFSET 9.52751 0.295786 -0.907742
            CHANNELS 3 Zrotation Xrotation Yrotation
            End Site
            {
              OFFSET 16.4037 0.713936 2.7358
            }
          }
        }
        JOINT LeftShoulder
        {
          OFFSET 27.5574 4.95586 2.47156
          CHANNELS 3 Zrotation Xrotation Yrotation
          JOINT LeftArm
          {
            OFFSET 1.20734 -0.998971 20.1238
            CHANNELS 3 Zrotation Xrotation Yrotation
            JOINT LeftForeArm
            {
              OFFSET 26.8049 -0.0536703 -0.155908
              CHANNELS 3 Zrotation Xrotation Yrotation
              JOINT LeftHand
              {
                OFFSET 26.6817 0 0.320147
                CHANNELS 3 Zrotation Xrotation Yrotation
                End Site
                {
                  OFFSET 18.6119 0 0.382219
                }
              }
            }
          }
        }
        JOINT RightShoulder
        {
          OFFSET 27.5927 4.71444 -2.65209
          CHANNELS 3 Zrotation Xrotation Yrotation
          JOINT RightArm
          {
            OFFSET 2.83739 -1.17114 -18.7564
            CHANNELS 3 Zrotation Xrotation Yrotation
            JOINT RightForeArm
            {
              OFFSET 28.839 -0.0548439 1.22491
              CHANNELS 3 Zrotation Xrotation Yrotation
              JOINT RightHand
              {
                OFFSET 26.5114 0 -0.101894
                CHANNELS 3 Zrotation Xrotation Yrotation
                End Site
                {
                  OFFSET 18.2168 0 0
                }
              }
            }
          }
        }
      }
    }
  }
  JOINT LeftUpLeg
  {
    OFFSET -4.76168 -1.9167 -10.2353
    CHANNELS 3 Zrotation Xrotation Yrotation
    JOINT LeftLeg
    {
      OFFSET 2.55951 -42.0585 -8.02213
      CHANNELS 3 Zrotation Xrotation Yrotation
      JOINT LeftFoot
      {
        OFFSET 3.16357 -42.5282 -3.95426
        CHANNELS 3 Zrotation Xrotation Yrotation
        JOINT LeftToeBase
        {
          OFFSET 0.346054 -6.02161 12.8035
          CHANNELS 3 Zrotation Xrotation Yrotation
          End Site
          {
            OFFSET 0.134235 -1.35082 5.13018
          }
        }
      }
    }
  }
  JOINT RightUpLeg
  {
    OFFSET -4.94151 -1.41743 10.6446
    CHANNELS 3 Zrotation Xrotation Yrotation
    JOINT RightLeg
    {
      OFFSET -2.56294 -42.0364 -7.94377
      CHANNELS 3 Zrotation Xrotation Yrotation
      JOINT RightFoot
      {
        OFFSET -3.0952 -42.555 -4.02241
        CHANNELS 3 Zrotation Xrotation Yrotation
        JOINT RightToeBase
        {
          OFFSET -0.0828122 -6.13587 12.8035
          CHANNELS 3 Zrotation Xrotation Yrotation
          End Site
          {
            OFFSET -0.131328 -1.35082 5.13018
          }
        }
      }
    }
  }
}
MOTION
Frames:	10
Frame Time:	0.0333333
8.24692 94.5068 -8.55398 69.4301 -35.887 -11.5054 -70.1915 0 88.8779 66.8928 70.7894 16.4014 6.06581 20.6721 4.26915 -123.916 33.3274 159.362 170.117 75.9298 -146.573 -0.162674 -17.5417 -26.5944 -61.7756 30.6966 -139.486 21.1978 -3.98121 -99.3703 -0.515062 0.0134725 1.8866 -1.99338 7.20726 42.0386 -123.879 -6.53511 101.121 20.8366 -4.15792 79.068 2.05549 0.0193501 0.752101 -52.4112 13.2867 99.3136 -1.93424 36.2234 -3.0682 -0.680756 -10.064 -0.861801 2.86112 -9.00705 12.369 -44.009 -12.0667 77.0342 1.84502 29.4924 -2.97779 -3.85526 -0.0163758 0.647285 0.786903 -4.50344 -2.04154 
8.21332 94.5071 -8.54491 69.4031 -35.9112 -11.525 -70.1915 0 88.8779 67.7673 70.7309 15.7539 5.82983 20.6678 3.80291 -123.537 33.1034 158.819 171.245 75.9616 -147.266 -0.109768 -17.4137 -26.12 -61.4 31.2447 -139.723 21.8312 -4.07616 -99.2857 -0.544198 0.0132906 1.83584 -2.02024 7.14581 42.6446 -123.784 -6.33302 101.515 20.8691 -4.21968 78.9349 2.05922 0.0193541 0.802744 -52.3871 13.3577 99.4055 -1.9461 36.2266 -3.15238 -0.767781 -10.1109 -0.858995 2.86944 -8.99686 12.24 -43.9715 -12.0757 76.9541 1.89239 29.531 -2.71322 -4.26713 0.164838 0.693015 0.880079 -4.84074 -2.5293 
8.24795 94.5201 -8.52872 69.4437 -35.9441 -11.5502 -70.1915 0 88.8779 68.5029 70.8206 15.0157 5.45505 20.6601 3.83145 -122.704 32.8316 157.371 176.801 76.4968 -151.438 -0.0300825 -16.9835 -25.9499 -61.3613 31.8544 -139.863 22.7637 -4.2794 -99.3097 -0.377191 0.0143375 1.6468 -2.00875 7.05242 42.8667 -123.608 -6.08091 101.589 20.7023 -4.17045 78.9652 2.04009 0.0193323 0.850198 -52.4336 13.32 99.4283 -1.92687 36.2481 -2.96328 -1.22599 -10.1989 -0.848453 2.87555 -8.97266 12.0566 -43.9904 -12.0589 77.071 1.81109 29.607 -2.97561 -4.55274 0.176554 0.730886 0.790733 -5.04624 -1.60152 
8.21431 94.5562 -8.49338 69.3933 -35.931 -11.6235 -70.1915 0 88.8779 67.896 70.8079 15.4235 5.56999 20.632 3.97928 -122.895 32.86 157.47 176.43 76.458 -151.225 -0.0120746 -16.8568 -25.9886 -61.1792 31.3462 -140.038 21.8869 -4.09273 -99.2977 -0.312768 0.0147408 1.63087 -1.99731 7.0433 42.748 -123.682 -6.19242 101.5 20.8853 -4.21022 78.9666 2.06674 0.0193623 0.866151 -52.3267 13.3788 99.5824 -1.94436 36.3221 -3.06451 -1.97982 -10.0669 -0.806246 3.01702 -9.21198 12.0988 -44.0014 -12.0884 76.9833 1.8227 29.5721 -2.7756 -5.35029 0.471737 0.825652 0.900392 -5.67615 -1.97229 
8.22618 94.5548 -8.50355 69.5049 -35.9216 -11.6036 -70.1915 0 88.8779 68.5988 70.7839 14.8551 5.44748 20.6302 3.65358 -122.754 32.704 157.283 176.661 76.3865 -151.382 -0.0094236 -16.939 -25.7353 -61.039 31.7694 -140.051 22.0723 -4.13787 -99.3142 -0.368006 0.0143948 1.66393 -2.02442 7.06955 43.0166 -123.665 -6.05678 101.585 20.4698 -4.0947 79.0265 2.05182 0.0193455 0.86133 -52.4724 13.2402 99.4573 -1.91967 36.2269 -2.91578 -2.16615 -10.2875 -0.820405 2.79209 -8.8527 12.1453 -44.0423 -12.2707 76.7648 1.82125 29.7156 -2.7871 -5.02046 0.0899934 0.794518 0.740201 -4.86885 -1.35081 
8.23874 94.5558 -8.47037 69.4242 -35.8103 -11.598 -70.1915 0 88.8779 67.7892 70.7169 15.6233 5.65598 20.627 3.75145 -122.801 32.7767 157.271 176.811 76.4616 -151.541 -0.048134 -17.0757 -26.0051 -61.0981 31.6084 -140.048 21.9444 -4.10119 -99.2898 -0.407706 0.0141461 1.69584 -1.99569 7.0228 42.8093 -123.718 -6.15842 101.458 20.8342 -4.16712 79.0443 2.07007 0.0193662 0.836352 -52.3018 13.2481 99.3556 -1.92488 36.3182 -2.89256 -2.00109 -10.191 -0.817313 2.8553 -8.93944 12.0563 -43.9956 -12.209 76.8532 1.78545 29.6858 -3.02841 -4.59293 0.0935324 0.7386 0.704395 -4.87201 -1.04395 
8.24177 94.5569 -8.42393 69.5331 -35.8776 -11.5287 -70.1915 0 88.8779 68.2127 70.6829 15.2878 5.64232 20.5974 3.53415 -122.763 32.6473 157.181 177.744 76.4133 -152.406 0.00846735 -16.8059 -25.785 -61.005 31.6301 -140.244 22.0757 -4.11906 -99.2682 -0.356014 0.0144699 1.6647 -2.00417 6.99137 43.0568 -123.65 -6.12689 101.678 20.9587 -4.20579 79.0166 2.06293 0.0193581 0.844673 -52.5071 13.3296 99.4612 -1.9221 36.2111 -2.94958 -2.14139 -10.0813 -0.800957 3.04251 -9.24167 12.0305 -44.1059 -12.2371 76.6634 1.852 29.7547 -2.5809 -4.95038 0.153961 0.783247 0.885696 -5.31767 -2.17359 
8.25978 94.5586 -8.37844 69.6063 -35.9256 -11.4664 -70.1915 0 88.8779 68.2396 70.7566 15.1784 5.57695 20.6183 3.6872 -122.77 32.7467 157.259 176.96 76.4484 -151.7 0.0266683 -16.6762 -25.8267 -60.9907 31.3496 -140.377 21.8122 -4.03869 -99.2054 -0.300905 0.0148149 1.65539 -1.97721 6.93193 42.9287 -123.688 -6.22705 101.548 21.2048 -4.23491 79.0767 2.05797 0.0193526 0.826056 -52.6461 13.4191 99.5472 -1.92736 36.1625 -3.03299 -2.24464 -10.2205 -0.810787 2.89402 -8.95249 11.7865 -44.2127 -12.1181 76.7566 1.81494 29.6936 -2.8245 -5.09534 0.200612 0.800794 0.828736 -5.3658 -1.63703 
8.2738 94.563 -8.34279 69.5576 -35.8945 -11.4929 -70.1915 0 88.8779 67.537 70.7111 15.9179 5.7596 20.6568 3.6614 -122.723 32.7534 157.28 176.749 76.441 -151.418 -0.00633877 -16.8196 -25.9936 -61.1471 31.3313 -140.188 22.2259 -4.14719 -99.2617 -0.317139 0.0147133 1.6493 -1.97371 6.92501 42.9079 -123.648 -6.07874 101.548 20.9812 -4.13618 79.1972 2.06526 0.0193607 0.85375 -52.6099 13.3584 99.4331 -1.91785 36.1295 -2.97296 -2.0192 -9.98556 -0.796403 2.96932 -9.12409 12.0391 -44.1611 -12.1373 76.7478 1.79773 29.7514 -2.81419 -4.67607 0.034732 0.75151 0.750581 -5.11606 -1.20938 
8.26793 94.5583 -8.31224 69.6871 -35.9091 -11.3542 -70.1915 0 88.8779 68.1718 70.691 15.285 5.6056 20.5667 3.66673 -122.878 32.7174 157.407 176.406 76.3402 -151.225 0.0389816 -16.6264 -25.7526 -60.7695 31.437 -140.474 21.8876 -4.06721 -99.2367 -0.270598 0.0150048 1.62485 -1.9797 6.9474 42.8987 -123.521 -6.23444 101.531 21.0606 -4.12072 79.2761 2.06388 0.0193591 0.871685 -52.7155 13.4552 99.4295 -1.96094 36.1872 -3.3207 -2.22668 -10.133 -0.802584 2.96914 -9.2498 12.7394 -44.31 -12.1604 76.5665 1.84936 29.7926 -2.76019 -4.87512 -0.0954988 0.782176 0.723938 -4.82158 -1.25503 
